<?xml version="1.0" encoding="UTF-8"?>
<svg width="10240px" height="5760px" viewBox="0 0 10240 5760" version="1.1" xmlns="http://www.w3.org/2000/svg" xmlns:xlink="http://www.w3.org/1999/xlink">
    <title>Desktop</title>
    <g id="Desktop" stroke="none" stroke-width="1" fill="none" fill-rule="evenodd">
        <rect id="Rectangle" fill="#A4FFB1" fill-rule="nonzero" x="0" y="0" width="10240" height="5760"></rect>
        <path d="M4773.43812,-529.655172 L6728.25192,-529.655172 C6786.71232,-529.655172 6834.10383,-482.263655 6834.10383,-423.803255 C6834.10383,-410.953305 6831.7641,-398.210736 6827.19911,-386.198989 L6162.10584,1363.84485 C6141.33757,1418.49188 6168.80174,1479.62805 6223.44877,1500.39632 C6235.46051,1504.96131 6248.20308,1507.30104 6261.05303,1507.30104 L7294.47389,1507.30104 C7352.93429,1507.30104 7400.3258,1554.69255 7400.3258,1613.15295 C7400.3258,1640.97736 7389.37021,1667.6829 7369.82958,1687.49102 L5498.06779,3584.87582 C5457.01201,3626.49362 5389.99183,3626.94923 5348.37403,3585.89345 C5318.6149,3556.5362 5308.92035,3512.41472 5323.63154,3473.28627 L5724.33835,2407.49644 C5744.91178,2352.77576 5717.22996,2291.73783 5662.50929,2271.16441 C5652.70991,2267.48012 5642.41819,2265.26996 5631.97017,2264.60608 L4766.72575,2209.62783 C4710.98396,2206.08596 4667.58621,2159.84316 4667.58621,2103.98896 L4667.58621,-423.803255 C4667.58621,-482.263655 4714.97772,-529.655172 4773.43812,-529.655172 Z" id="Path-4" fill="#7AEB8A" transform="translate(6107.586207, 1704.827586) rotate(-336.000000) translate(-6107.586207, -1704.827586) "></path>
        <path d="M116.8864,-1986.2069 L2071.70019,-1986.2069 C2130.16059,-1986.2069 2177.55211,-1938.81538 2177.55211,-1880.35498 C2177.55211,-1867.50503 2175.21238,-1854.76246 2170.64739,-1842.75071 L1505.55411,-92.7068709 C1484.78585,-38.0598436 1512.25002,23.0763283 1566.89704,43.8445911 C1578.90879,48.409581 1591.65136,50.7493126 1604.50131,50.7493126 L2637.92216,50.7493126 C2696.38256,50.7493126 2743.77408,98.1408302 2743.77408,156.60123 C2743.77408,184.425637 2732.81848,211.131172 2713.27786,230.939293 L841.516062,2128.3241 C800.460283,2169.9419 733.440105,2170.39751 691.822304,2129.34173 C662.063173,2099.98448 652.368629,2055.86299 667.079816,2016.73455 L1067.78663,950.944718 C1088.36006,896.224041 1060.67824,835.186111 1005.95756,814.612685 C996.158188,810.928398 985.866461,808.718231 975.418449,808.054357 L110.17403,753.07611 C54.4322406,749.534237 11.0344828,703.291435 11.0344828,647.437232 L11.0344828,-1880.35498 C11.0344828,-1938.81538 58.4260004,-1986.2069 116.8864,-1986.2069 Z" id="Path-4" fill="#7AEB8A" transform="translate(1451.034483, 248.275862) rotate(-347.000000) translate(-1451.034483, -248.275862) "></path>
        <path d="M6472.74847,1445.51724 L8427.56226,1445.51724 C8486.02266,1445.51724 8533.41418,1492.90876 8533.41418,1551.36916 C8533.41418,1564.21911 8531.07445,1576.96168 8526.50946,1588.97342 L7861.41618,3339.01727 C7840.64792,3393.66429 7868.11208,3454.80047 7922.75911,3475.56873 C7934.77086,3480.13372 7947.51343,3482.47345 7960.36338,3482.47345 L8993.78423,3482.47345 C9052.24463,3482.47345 9099.63615,3529.86497 9099.63615,3588.32537 C9099.63615,3616.14978 9088.68055,3642.85531 9069.13993,3662.66343 L7197.37813,5560.04823 C7156.32235,5601.66603 7089.30217,5602.12164 7047.68437,5561.06587 C7017.92524,5531.70861 7008.2307,5487.58713 7022.94189,5448.45869 L7423.6487,4382.66886 C7444.22212,4327.94818 7416.54031,4266.91025 7361.81963,4246.33682 C7352.02026,4242.65254 7341.72853,4240.44237 7331.28052,4239.7785 L6466.0361,4184.80025 C6410.29431,4181.25837 6366.89655,4135.01557 6366.89655,4079.16137 L6366.89655,1551.36916 C6366.89655,1492.90876 6414.28807,1445.51724 6472.74847,1445.51724 Z" id="Path-4" fill="#7AEB8A" transform="translate(7806.896552, 3680.000000) rotate(-494.000000) translate(-7806.896552, -3680.000000) "></path>
        <path d="M253.472607,3707 L2208.2864,3707 C2266.7468,3707 2314.13832,3754.39152 2314.13832,3812.85192 C2314.13832,3825.70187 2311.79858,3838.44444 2307.2336,3850.45618 L1642.14032,5600.50003 C1621.37206,5655.14705 1648.83622,5716.28322 1703.48325,5737.05149 C1715.495,5741.61648 1728.23757,5743.95621 1741.08752,5743.95621 L2774.50837,5743.95621 C2832.96877,5743.95621 2880.36029,5791.34773 2880.36029,5849.80813 C2880.36029,5877.63253 2869.40469,5904.33807 2849.86406,5924.14619 L978.102269,7821.53099 C937.04649,7863.14879 870.026312,7863.6044 828.40851,7822.54862 C798.64938,7793.19137 788.954836,7749.06989 803.666023,7709.94145 L1204.37284,6644.15161 C1224.94626,6589.43094 1197.26445,6528.39301 1142.54377,6507.81958 C1132.7444,6504.13529 1122.45267,6501.92513 1112.00466,6501.26125 L246.760237,6446.28301 C191.018448,6442.74113 147.62069,6396.49833 147.62069,6340.64413 L147.62069,3812.85192 C147.62069,3754.39152 195.012207,3707 253.472607,3707 Z" id="Path-4" fill="#7AEB8A" transform="translate(1587.620690, 5941.482759) rotate(-517.000000) translate(-1587.620690, -5941.482759) "></path>
        <path d="M5263.67918,2376.38509 L4905.69109,4327.05835 C4895.13865,4384.55847 4933.19727,4439.72598 4990.6974,4450.27842 C4997.00059,4451.43518 5003.39582,4452.01715 5009.80428,4452.01715 L6069.75519,4452.01715 C6128.21559,4452.01715 6175.60711,4499.40866 6175.60711,4557.86906 C6175.60711,4585.68224 6164.66033,4612.37793 6145.13365,4632.18404 L4273.22145,6530.88447 C4232.17842,6572.51485 4165.15839,6572.99099 4123.52801,6531.94796 C4093.75703,6502.59701 4084.05022,6458.47318 4098.75492,6419.33801 L4499.55042,5352.65882 C4520.11281,5297.93399 4492.41867,5236.90165 4437.69384,5216.33926 C4427.90172,5212.65996 4417.61829,5210.45245 4407.17883,5209.78871 L3612.16356,5159.24191 C3553.82096,5155.53251 3509.532,5105.22942 3513.24141,5046.88683 C3514.26592,5030.77296 3518.9632,5015.10703 3526.97378,5001.08787 L5067.65974,2304.76278 C5096.66321,2254.00437 5161.323,2236.36849 5212.08142,2265.37196 C5251.10432,2287.66974 5271.79186,2332.17918 5263.67918,2376.38509 Z" id="Path-4" fill="#7AEB8A" transform="translate(4882.758621, 4325.517241) scale(-1, -1) rotate(-141.000000) translate(-4882.758621, -4325.517241) "></path>
        <path d="M9467.81711,-536.718357 L9109.82902,1413.9549 C9099.27659,1471.45503 9137.33521,1526.62253 9194.83533,1537.17497 C9201.13853,1538.33173 9207.53375,1538.9137 9213.94221,1538.9137 L10273.8931,1538.9137 C10332.3535,1538.9137 10379.745,1586.30522 10379.745,1644.76562 C10379.745,1672.57879 10368.7983,1699.27448 10349.2716,1719.08059 L8477.35938,3617.78102 C8436.31635,3659.4114 8369.29632,3659.88754 8327.66594,3618.84452 C8297.89496,3589.49357 8288.18815,3545.36973 8302.89285,3506.23456 L8703.68836,2439.55537 C8724.25074,2384.83054 8696.5566,2323.7982 8641.83178,2303.23582 C8632.03965,2299.55651 8621.75622,2297.349 8611.31676,2296.68526 L7816.30149,2246.13846 C7757.95889,2242.42906 7713.66994,2192.12597 7717.37934,2133.78338 C7718.40385,2117.66951 7723.10113,2102.00358 7731.11171,2087.98442 L9271.79767,-608.340664 C9300.80114,-659.099083 9365.46093,-676.734953 9416.21935,-647.731484 C9455.24225,-625.433711 9475.92979,-580.924265 9467.81711,-536.718357 Z" id="Path-4" fill="#7AEB8A" transform="translate(9086.896552, 1412.413793) scale(-1, -1) rotate(-110.000000) translate(-9086.896552, -1412.413793) "></path>
        <path d="M1092.64469,1570.86785 L734.65661,3521.54111 C724.104172,3579.04123 762.162791,3634.20874 819.662916,3644.76117 C825.966112,3645.91794 832.361334,3646.49991 838.769796,3646.49991 L1898.72071,3646.49991 C1957.1811,3646.49991 2004.57262,3693.89142 2004.57262,3752.35182 C2004.57262,3780.165 1993.62584,3806.86069 1974.09917,3826.6668 L102.186967,5725.36723 C61.1439406,5766.99761 -5.87609498,5767.47375 -47.5064724,5726.43072 C-77.2774534,5697.07977 -86.9842673,5652.95594 -72.2795656,5613.82077 L328.515941,4547.14157 C349.078323,4492.41675 321.384189,4431.3844 266.659361,4410.82202 C256.867235,4407.14272 246.58381,4404.93521 236.144343,4404.27147 L-558.870927,4353.72467 C-617.213524,4350.01527 -661.502479,4299.71218 -657.793076,4241.36958 C-656.768562,4225.25572 -652.071285,4209.58979 -644.060706,4195.57062 L896.62526,1499.24554 C925.62873,1448.48712 990.288516,1430.85125 1041.04693,1459.85472 C1080.06984,1482.1525 1100.75737,1526.66194 1092.64469,1570.86785 Z" id="Path-4" fill="#7AEB8A" transform="translate(711.724138, 3520.000000) scale(-1, -1) rotate(15.000000) translate(-711.724138, -3520.000000) "></path>
        <path d="M3740.92055,-62.2355979 L3382.93247,1888.43766 C3372.38003,1945.93779 3410.43865,2001.10529 3467.93878,2011.65773 C3474.24197,2012.81449 3480.6372,2013.39646 3487.04566,2013.39646 L4546.99657,2013.39646 C4605.45697,2013.39646 4652.84848,2060.78798 4652.84848,2119.24837 C4652.84848,2147.06155 4641.9017,2173.75724 4622.37503,2193.56335 L2750.46283,4092.26378 C2709.4198,4133.89416 2642.39977,4134.3703 2600.76939,4093.32727 C2570.99841,4063.97632 2561.29159,4019.85249 2575.9963,3980.71732 L2976.7918,2914.03813 C2997.35419,2859.3133 2969.66005,2798.28096 2914.93522,2777.71857 C2905.1431,2774.03927 2894.85967,2771.83176 2884.4202,2771.16802 L2089.40494,2720.62122 C2031.06234,2716.91182 1986.77338,2666.60873 1990.48279,2608.26614 C1991.5073,2592.15227 1996.20458,2576.48634 2004.21516,2562.46718 L3544.90112,-133.857906 C3573.90459,-184.616324 3638.56438,-202.252195 3689.3228,-173.248725 C3728.3457,-150.950952 3749.03324,-106.441506 3740.92055,-62.2355979 Z" id="Path-4" fill="#7AEB8A"></path>
        <path d="M11258.9206,1542.7644 L10900.9325,3493.43766 C10890.38,3550.93779 10928.4387,3606.10529 10985.9388,3616.65773 C10992.242,3617.81449 10998.6372,3618.39646 11005.0457,3618.39646 L12064.9966,3618.39646 C12123.457,3618.39646 12170.8485,3665.78798 12170.8485,3724.24837 C12170.8485,3752.06155 12159.9017,3778.75724 12140.375,3798.56335 L10268.4628,5697.26378 C10227.4198,5738.89416 10160.3998,5739.3703 10118.7694,5698.32727 C10088.9984,5668.97632 10079.2916,5624.85249 10093.9963,5585.71732 L10494.7918,4519.03813 C10515.3542,4464.3133 10487.6601,4403.28096 10432.9352,4382.71857 C10423.1431,4379.03927 10412.8597,4376.83176 10402.4202,4376.16802 L9607.40494,4325.62122 C9549.06234,4321.91182 9504.77338,4271.60873 9508.48279,4213.26614 C9509.5073,4197.15227 9514.20458,4181.48634 9522.21516,4167.46718 L11062.9011,1471.14209 C11091.9046,1420.38368 11156.5644,1402.74781 11207.3228,1431.75128 C11246.3457,1454.04905 11267.0332,1498.55849 11258.9206,1542.7644 Z" id="Path-4" fill="#7AEB8A"></path>
    </g>
</svg>