<?xml version="1.0" encoding="UTF-8"?>
<svg width="723px" height="706px" viewBox="0 0 723 706" version="1.1" xmlns="http://www.w3.org/2000/svg" xmlns:xlink="http://www.w3.org/1999/xlink">
    <title>Combined Shape</title>
    <g id="Website" stroke="none" stroke-width="1" fill="none" fill-rule="evenodd">
        <g id="Desktop" transform="translate(-334.000000, -237.000000)" fill="#FFE968" stroke="#000000" stroke-width="21.8568297">
            <path d="M947.836555,782.734297 C988.973096,782.734297 1022.32085,816.148563 1022.32085,857.367148 C1022.32085,898.585734 988.973096,932 947.836555,932 C906.700013,932 873.352258,898.585734 873.352258,857.367148 C873.352258,816.148563 906.700013,782.734297 947.836555,782.734297 Z M942.370735,248 C999.59974,248 1045.99302,294.393275 1045.99302,351.622281 C1045.99302,355.913541 1045.72645,360.200658 1045.19485,364.458864 L1008.58012,657.751645 C1004.18059,692.992973 975.680136,720.325237 940.285627,723.246856 C901.185497,726.474354 862.277946,715.084601 831.090787,691.281281 L827.073585,688.215187 C804.528895,671.008153 772.303756,675.335179 755.096723,697.879869 C752.513493,701.264421 750.361218,704.957104 748.689448,708.8729 L689.270085,848.051213 C668.941547,895.666862 613.8619,917.787437 566.246251,897.458899 C544.247005,888.066767 526.670241,870.620259 517.114734,848.691482 L354.686241,475.93699 C329.145217,417.323313 355.955901,349.102448 414.569578,323.561424 C421.683453,320.461539 429.090979,318.084771 436.680395,316.466978 C507.767252,301.313795 577.678618,346.656996 592.831802,417.743853 C593.508597,420.918849 594.067685,424.117799 594.507917,427.334139 L612.439494,558.342462 C614.4382,572.945032 627.896193,583.162482 642.498762,581.163776 C651.484289,579.933895 659.230194,574.224744 663.064398,566.005791 L683.488829,522.224231 C694.681897,498.230907 717.079714,481.379743 743.235106,477.273677 C769.404975,473.165337 795.910032,482.291797 814.002775,501.641038 L820.244952,508.316719 C826.791184,515.317571 837.773265,515.686113 844.774117,509.139881 C848.734404,505.436767 850.736429,500.095566 850.185937,494.701691 L836.923879,364.756374 C830.980315,306.519684 873.37227,254.491308 931.60896,248.547744 C935.184611,248.182818 938.77651,248 942.370735,248 Z" id="Combined-Shape"></path>
        </g>
    </g>
</svg>