<?xml version="1.0" encoding="UTF-8"?>
<svg width="3142px" height="1414px" viewBox="0 0 3142 1414" version="1.1" xmlns="http://www.w3.org/2000/svg" xmlns:xlink="http://www.w3.org/1999/xlink">
    <title>Group</title>
    <g id="Website" stroke="none" stroke-width="1" fill="none" fill-rule="evenodd">
        <g id="Desktop" transform="translate(-3556.000000, -1821.000000)">
            <g id="Group" transform="translate(3556.724138, 1821.310345)">
                <path d="M1988.0327,1376.35951 L2046.07484,1099.46342 C2048.70791,1086.90208 2061.02541,1078.85363 2073.58675,1081.4867 C2082.90665,1083.44031 2090.09159,1090.88207 2091.71681,1100.26481 L2139.35511,1375.29003 C2141.12883,1385.5301 2149.48588,1393.34757 2159.8214,1394.43491 C2203.82755,1399.06451 2241.50238,1401.37931 2272.84587,1401.37931 C2305.7098,1401.37931 2359.2476,1398.83449 2433.45926,1393.74484 L2433.45926,1393.74484 C2443.90444,1393.02848 2452.58085,1385.41588 2454.64965,1375.1526 C2483.12957,1233.86444 2503.31575,1120.26548 2515.2082,1034.35572 C2527.10365,948.424329 2541.3596,813.200822 2557.97606,628.685206 L2557.97606,628.685205 C2559.11013,616.092094 2549.96771,604.903221 2537.4012,603.504837 C2491.61366,598.409658 2459.25088,595.862069 2440.31289,595.862069 C2420.78015,595.862069 2387.3032,598.572184 2339.88203,603.992415 C2329.31084,605.200701 2320.91055,613.434051 2319.49034,623.978866 L2279.05549,924.201192 C2277.34239,936.920684 2265.64247,945.843128 2252.92297,944.130028 C2242.28195,942.696863 2234.00818,934.160232 2232.90842,923.479602 L2202.16825,624.938718 C2201.03679,613.950358 2192.32639,605.277092 2181.33329,604.192609 C2125.03708,598.638916 2085.0661,595.862069 2061.42036,595.862069 C2038.36339,595.862069 2005.62192,598.50235 1963.19592,603.782913 C1952.64376,605.096292 1944.32922,613.404434 1943.00771,623.955581 L1903.66483,938.076683 C1902.06982,950.811523 1890.45318,959.842142 1877.71834,958.247135 C1866.91721,956.894321 1858.50254,948.225133 1857.47209,937.388493 C1855.68359,918.579816 1853.89274,899.63075 1852.09956,880.541297 C1844.10346,795.418138 1836.32189,710.281754 1828.75484,625.132146 L1828.75485,625.132146 C1827.77023,614.052532 1819.07239,605.224315 1808.00865,604.074969 C1755.30309,598.599702 1718.77042,595.862069 1698.41065,595.862069 C1679.00313,595.862069 1649.56896,598.349607 1610.10815,603.324684 L1610.10815,603.324682 C1598.13773,604.83387 1589.31332,615.252754 1589.79488,627.308321 C1597.1179,810.634454 1606.52458,943.579203 1618.01491,1026.14257 C1629.53713,1108.93512 1654.93257,1225.6964 1694.20121,1376.42642 L1694.20121,1376.42642 C1696.70999,1386.0562 1705.07172,1393.01982 1714.9965,1393.74467 C1784.68673,1398.83443 1835.64035,1401.37931 1867.85733,1401.37931 C1898.08497,1401.37931 1931.50304,1399.13901 1968.11155,1394.65842 C1977.98355,1393.45016 1985.99227,1386.09362 1988.0327,1376.35951 Z" id="Path" fill="#000000" fill-rule="nonzero" transform="translate(2074.482759, 998.620690) rotate(-180.000000) translate(-2074.482759, -998.620690) "></path>
                <path d="M417.66096,1374.57635 L462.668601,1176.1747 C465.507943,1163.65838 477.956168,1155.81364 490.47249,1158.65298 C499.228286,1160.63925 506.056613,1167.49159 508.012122,1176.2543 L552.251339,1374.49197 C554.460964,1384.3934 562.838236,1391.71711 572.946102,1392.5841 C641.306559,1398.44757 690.499192,1401.37931 720.524,1401.37931 C749.91918,1401.37931 791.420447,1398.56924 845.027802,1392.9491 L845.027802,1392.9491 C855.20812,1391.88181 863.491227,1384.27901 865.424955,1374.22721 C899.881196,1195.1186 923.369711,1060.15449 935.890502,969.334872 C948.226324,879.856926 959.470023,763.929231 969.6216,621.551787 C970.451306,609.915038 962.524653,599.466769 951.094586,597.130982 C910.957178,588.928718 875.032308,584.827586 843.319978,584.827586 C811.368787,584.827586 779.477613,588.990731 747.646454,597.317021 C738.73284,599.648614 732.03847,607.026064 730.58118,616.123599 C709.846973,745.562583 696.77558,832.532075 691.367002,877.032074 C691.367002,877.032074 691.367002,877.032074 691.367002,877.032074 C689.629639,891.326517 676.633293,901.506043 662.33885,899.76868 C650.022263,898.271709 640.466644,888.30273 639.492295,875.933823 C639.282368,873.26844 639.073019,870.601871 638.864284,867.934113 C633.6856,801.747462 628.228515,756.802903 622.493029,733.100434 L622.493027,733.100435 C619.702748,721.569329 610.102751,712.945089 598.339631,711.402024 C545.519544,704.473177 507.912081,701.008753 485.517241,701.008753 C463.099946,701.008753 425.112284,704.480128 371.554254,711.422877 L371.554254,711.422876 C362.283136,712.624694 354.634847,719.265083 352.143465,728.275688 C334.932039,790.524407 323.89999,837.077215 319.047316,867.934113 C315.588278,889.929238 310.000124,937.452545 302.282854,1010.50403 C301.69973,1016.02401 296.752182,1020.0261 291.232211,1019.44296 C286.304613,1018.9224 282.491676,1014.88816 282.249663,1009.93905 L275.799822,878.041468 C275.766931,877.368857 275.704819,876.697993 275.613662,876.030776 L240.369514,618.064842 C239.010683,608.11902 231.419255,600.169911 221.54648,598.354937 C172.490689,589.336703 138.013142,584.827586 118.113841,584.827586 C98.8340719,584.827586 66.3463998,589.060305 20.6508243,597.525744 L20.6508245,597.525745 C8.91564753,599.699773 0.735245654,610.40984 1.72541663,622.30355 C16.840747,803.865481 29.9615947,934.784378 41.0879597,1015.06024 C52.2489181,1095.58569 73.9079882,1215.37542 106.06517,1374.42944 L106.06517,1374.42944 C108.07701,1384.38029 116.315501,1391.87341 126.411989,1392.93541 C179.930005,1398.56468 221.289899,1401.37931 250.491671,1401.37931 C280.288576,1401.37931 329.123828,1398.44878 396.997428,1392.58772 C407.069889,1391.71794 415.424336,1384.43578 417.66096,1374.57635 Z" id="Path" fill="#000000" fill-rule="nonzero"></path>
                <path d="M1251.60035,595.862841 C1285.38517,595.913782 1338.64497,598.4863 1411.37976,603.580395 C1421.19589,604.267883 1429.51491,611.063337 1432.14763,620.544787 C1477.65736,784.443152 1507.70927,907.226412 1522.30336,988.894567 C1536.80892,1070.06737 1551.64121,1197.90615 1566.80023,1372.41091 C1567.80988,1384.03361 1560.04556,1394.60338 1548.65277,1397.11552 L1548.65277,1397.11552 L1547.26901,1397.41996 C1501.73076,1407.41585 1468.66198,1412.41379 1448.06267,1412.41379 C1426.5603,1412.41379 1388.49327,1406.96803 1333.86157,1396.07651 C1323.72761,1394.05617 1316.14504,1385.58692 1315.25317,1375.29208 L1315.25317,1375.29208 L1306.32407,1272.22322 C1305.28345,1260.21129 1295.22909,1250.99031 1283.17217,1250.99031 L1283.17217,1250.99031 L1237.23739,1250.99031 C1225.3261,1250.99031 1215.34335,1259.99644 1214.12138,1271.84489 L1214.12138,1271.84489 L1203.41439,1375.66135 C1202.37113,1385.77698 1194.8719,1394.03931 1184.90436,1396.0549 C1130.97209,1406.96083 1093.32986,1412.41379 1071.97769,1412.41379 C1051.25975,1412.41379 1016.41603,1407.27996 967.446526,1397.01229 C955.794015,1394.56906 947.872905,1383.7143 949.100644,1371.87188 L949.100644,1371.87188 L949.677669,1366.31294 C968.69201,1183.35985 984.986731,1049.10808 998.561834,963.557628 C1012.24416,877.331457 1035.42421,763.313348 1068.10197,621.503302 C1070.39851,611.537156 1078.94073,604.243956 1089.14368,603.53827 L1089.14368,603.53827 L1091.35731,603.385514 C1164.20732,598.369884 1217.2824,595.862069 1250.58253,595.862069 Z M1251.60564,922.594418 C1240.61023,921.085551 1230.4735,928.775919 1228.96463,939.771337 L1228.96463,939.771337 L1210.31401,1075.68214 C1210.17034,1076.72913 1210.09825,1077.7847 1210.09825,1078.8415 C1210.09825,1091.67583 1220.50254,1102.08012 1233.33687,1102.08012 L1233.33687,1102.08012 L1260.67905,1102.08012 C1261.52626,1102.08012 1262.37283,1102.03379 1263.21498,1101.94134 C1275.97267,1100.54078 1285.17944,1089.06325 1283.77888,1076.30556 L1283.77888,1076.30556 L1268.84913,940.310438 C1267.84347,931.149823 1260.73573,923.847312 1251.60564,922.594418 Z" id="Combined-Shape" fill="#000000" fill-rule="nonzero"></path>
                <path d="M2571.61931,198.62069 L2789.03239,198.62069 C2795.44955,198.62069 2800.6517,203.822832 2800.6517,210.24 C2800.6517,211.679926 2800.38405,213.107309 2799.8624,214.449421 L2726.15233,404.090904 C2723.82753,410.072154 2726.79167,416.805538 2732.77292,419.130337 C2734.11503,419.651991 2735.54241,419.919636 2736.98234,419.919636 L2851.77149,419.919636 C2858.18866,419.919636 2863.3908,425.121778 2863.3908,431.538946 C2863.3908,434.638452 2862.15242,437.609489 2859.95104,439.791423 L2651.88475,646.01899 C2647.32703,650.53643 2639.97017,650.503778 2635.45273,645.946061 C2632.23368,642.69831 2631.21885,637.864469 2632.86001,633.596358 L2677.32234,517.964583 C2679.62545,511.974949 2676.63693,505.252349 2670.6473,502.949236 C2669.54242,502.524393 2668.37911,502.270881 2667.19765,502.197478 L2570.89881,496.214556 C2564.77323,495.833982 2560,490.754995 2560,484.617606 L2560,210.24 C2560,203.822832 2565.20214,198.62069 2571.61931,198.62069 Z" id="Path-4" stroke="#000000" stroke-width="34.857931" fill="#FFE968" transform="translate(2720.000000, 441.379310) rotate(-336.000000) translate(-2720.000000, -441.379310) "></path>
                <path d="M2442.44758,66.4794017 L2402.54881,281.544641 C2401.37827,287.854149 2405.54423,293.917923 2411.85374,295.088459 C2412.55277,295.218143 2413.26222,295.283395 2413.97318,295.283395 L2532.01531,295.283395 C2538.43248,295.283395 2543.63462,300.485537 2543.63462,306.902705 C2543.63462,309.977544 2542.41582,312.927017 2540.24525,315.104923 L2331.84152,524.213174 C2327.31156,528.758447 2319.95463,528.770862 2315.40936,524.240902 C2312.16439,521.006865 2311.12268,516.167954 2312.74944,511.885143 L2357.41128,394.302743 C2359.68991,388.303751 2356.67395,381.593416 2350.67496,379.314792 C2349.58601,378.901172 2348.44105,378.653651 2347.27849,378.580533 L2258.70782,373.009921 C2252.30331,372.607112 2247.43796,367.088688 2247.84077,360.684174 C2247.95335,358.894286 2248.47872,357.15475 2249.37576,355.601784 L2420.96179,58.5482185 C2424.17153,52.9914531 2431.27818,51.0888093 2436.83495,54.2985447 C2441.09683,56.76032 2443.34535,61.6401898 2442.44758,66.4794017 Z" id="Path-4" stroke="#000000" stroke-width="34.857931" fill="#FFE968"></path>
                <path d="M2861.75792,529.927678 L2821.85915,744.992917 C2820.68861,751.302425 2824.85457,757.366199 2831.16408,758.536735 C2831.86311,758.666418 2832.57257,758.731671 2833.28352,758.731671 L2951.32565,758.731671 C2957.74282,758.731671 2962.94496,763.933813 2962.94496,770.350981 C2962.94496,773.42582 2961.72617,776.375293 2959.5556,778.553198 L2751.15187,987.66145 C2746.62191,992.206723 2739.26498,992.219137 2734.7197,987.689178 C2731.47473,984.455141 2730.43302,979.61623 2732.05978,975.333419 L2776.72163,857.751019 C2779.00025,851.752026 2775.9843,845.041692 2769.9853,842.763068 C2768.89635,842.349448 2767.7514,842.101927 2766.58884,842.028809 L2678.01816,836.458197 C2671.61365,836.055388 2666.74831,830.536963 2667.15112,824.13245 C2667.26369,822.342562 2667.78907,820.603026 2668.6861,819.05006 L2840.27214,521.996494 C2843.48187,516.439729 2850.58852,514.537085 2856.14529,517.746821 C2860.40717,520.208596 2862.65569,525.088466 2861.75792,529.927678 Z" id="Path-4" stroke="#000000" stroke-width="34.857931" fill="#FFE968" transform="translate(2819.310345, 744.827586) scale(-1, -1) rotate(-113.000000) translate(-2819.310345, -744.827586) "></path>
            </g>
        </g>
    </g>
</svg>